<svg width="60" height="60" viewBox="0 0 60 60" fill="none" xmlns="http://www.w3.org/2000/svg">
<path d="M31.1719 24.6094C31.1719 25.2567 30.6473 25.7812 30 25.7812C29.3527 25.7812 28.8281 25.2567 28.8281 24.6094C28.8281 23.9621 29.3527 23.4375 30 23.4375C30.6473 23.4375 31.1719 23.9621 31.1719 24.6094Z" fill="white"/>
<path d="M0 55.7812V58.8281C0 59.4754 0.524597 60 1.17188 60H19.9219C20.5692 60 21.0938 59.4754 21.0938 58.8281V55.7812C21.0938 49.9759 16.3966 45.2344 10.5469 45.2344C4.73145 45.2344 0 49.9658 0 55.7812ZM10.5469 47.5781C15.0613 47.5781 18.75 51.2306 18.75 55.7812V57.6562H2.34375V55.7812C2.34375 51.2581 6.02371 47.5781 10.5469 47.5781Z" fill="white"/>
<path d="M49.4531 45.2344C43.6377 45.2344 38.9062 49.9658 38.9062 55.7812V58.8281C38.9062 59.4754 39.4308 60 40.0781 60H58.8281C59.4754 60 60 59.4754 60 58.8281V55.7812C60 49.9759 55.3029 45.2344 49.4531 45.2344ZM57.6562 57.6562H41.25V55.7812C41.25 51.2581 44.93 47.5781 49.4531 47.5781C53.9676 47.5781 57.6562 51.2306 57.6562 55.7812V57.6562Z" fill="white"/>
<path d="M56.4844 38.2031C56.4844 34.7255 53.9461 31.8311 50.625 31.2712V24.6094C50.625 22.6707 49.048 21.0938 47.1094 21.0938H39.9449C38.5107 17.0398 34.6477 14.0625 30 14.0625C25.4947 14.0625 21.5277 16.9107 20.0537 21.0938H12.8906C10.952 21.0938 9.375 22.6707 9.375 24.6094V31.2712C6.05392 31.8311 3.51562 34.7255 3.51562 38.2031C3.51562 42.0804 6.66962 45.2344 10.5469 45.2344C14.4241 45.2344 17.5781 42.0804 17.5781 38.2031C17.5781 34.7255 15.0398 31.8311 11.7188 31.2712V24.6094C11.7188 23.963 12.2443 23.4361 12.8906 23.4361H19.519C19.476 23.8248 19.4531 24.2175 19.4531 24.6094V30C19.4531 30.6473 19.9777 31.1719 20.625 31.1719H39.375C40.0223 31.1719 40.5469 30.6473 40.5469 30V24.6094C40.5469 24.2175 40.524 23.8261 40.481 23.4375H47.1094C47.7557 23.4375 48.2812 23.963 48.2812 24.6094V31.2712C44.9602 31.8311 42.4219 34.7255 42.4219 38.2031C42.4219 42.0804 45.5759 45.2344 49.4531 45.2344C53.3304 45.2344 56.4844 42.0804 56.4844 38.2031ZM15.2344 38.2031C15.2344 40.7877 13.1314 42.8906 10.5469 42.8906C7.96234 42.8906 5.85938 40.7877 5.85938 38.2031C5.85938 35.6186 7.96234 33.5156 10.5469 33.5156C13.1314 33.5156 15.2344 35.6186 15.2344 38.2031ZM38.2031 28.8281H21.7969V24.6094C21.7969 23.9159 21.8839 23.2251 22.0551 22.5577C22.8886 19.3195 25.589 16.9565 28.8281 16.4914V19.9219C28.8281 20.5692 29.3527 21.0938 30 21.0938C30.6473 21.0938 31.1719 20.5692 31.1719 19.9219V16.49C34.4957 16.9629 37.1365 19.4179 37.9449 22.5577C38.1161 23.226 38.2031 23.9163 38.2031 24.6094V28.8281ZM49.4531 42.8906C46.8686 42.8906 44.7656 40.7877 44.7656 38.2031C44.7656 35.6186 46.8686 33.5156 49.4531 33.5156C52.0377 33.5156 54.1406 35.6186 54.1406 38.2031C54.1406 40.7877 52.0377 42.8906 49.4531 42.8906Z" fill="white"/>
<path d="M37.0312 7.03125C37.0312 3.15399 33.8773 0 30 0C26.1227 0 22.9688 3.15399 22.9688 7.03125C22.9688 10.9085 26.1227 14.0625 30 14.0625C33.8773 14.0625 37.0312 10.9085 37.0312 7.03125ZM30 11.7188C27.4155 11.7188 25.3125 9.61578 25.3125 7.03125C25.3125 4.44672 27.4155 2.34375 30 2.34375C32.5845 2.34375 34.6875 4.44672 34.6875 7.03125C34.6875 9.61578 32.5845 11.7188 30 11.7188Z" fill="white"/>
</svg>
