<svg width="65" height="65" viewBox="0 0 65 65" fill="none" xmlns="http://www.w3.org/2000/svg">
<g clip-path="url(#clip0_41_1529)">
<path d="M51.845 16.3671C52.3404 15.8707 52.3404 15.0668 51.845 14.5719C51.3486 14.0755 50.5452 14.0755 50.0498 14.5719C49.5534 15.0668 49.5534 15.8707 50.0498 16.3671C50.5452 16.862 51.3486 16.862 51.845 16.3671Z" fill="white"/>
<path d="M16.5659 18.9959C17.0614 18.5009 17.0614 17.6971 16.5659 17.2007C16.0695 16.7057 15.2662 16.7057 14.7707 17.2007C14.2743 17.6971 14.2743 18.5009 14.7707 18.9959C15.2662 19.4923 16.0695 19.4923 16.5659 18.9959Z" fill="white"/>
<path d="M9.09493 26.3061L12.8946 22.505C13.3905 22.009 13.39 21.2057 12.8946 20.7098C12.3987 20.2138 11.5948 20.2143 11.0989 20.7098L7.29923 24.5109C6.80382 25.0068 6.80382 25.8107 7.29973 26.3061C7.79514 26.802 8.59902 26.802 9.09493 26.3061Z" fill="white"/>
<path d="M56.0328 22.6244C56.5288 23.1203 57.3326 23.1203 57.8285 22.6244C58.3244 22.129 58.3244 21.3251 57.8285 20.8292L55.2959 18.2966C54.8 17.8007 53.9961 17.8007 53.5002 18.2966C53.0048 18.792 53.0048 19.5959 53.5002 20.0918L56.0328 22.6244Z" fill="white"/>
<path d="M64.6281 21.2101L50.267 6.84656C49.782 6.36107 48.9985 6.34916 48.4991 6.82028C47.3838 7.87111 42.1415 12.8079 42.0656 12.8818C42.0612 12.8863 42.0562 12.8902 42.0518 12.8947C40.81 14.1364 39.5876 14.6899 38.0879 14.6899C35.0222 14.6899 32.6736 15.5557 30.7232 17.403C29.1239 15.8885 27.3113 15.1055 24.7817 14.8441L18.435 8.49695C17.9391 8.00104 17.1352 8.00104 16.6393 8.49695L0.371939 24.7648C-0.111079 25.2473 -0.126948 26.0269 0.343672 26.5293C0.35359 26.5397 0.36202 26.5501 0.371939 26.56C0.371939 26.56 10.9577 37.1293 10.9725 37.1437L10.5242 37.592C8.78854 39.3277 8.78754 42.1385 10.5247 43.8757C11.3469 44.6969 12.4766 45.1849 13.7124 45.1725C13.699 46.392 14.1702 47.5212 15.0132 48.3642C15.8696 49.2206 17.0142 49.6749 18.2009 49.6625C18.188 50.8809 18.6586 52.0096 19.5017 52.8527C20.3239 53.6739 21.4531 54.1619 22.6894 54.1495C22.676 55.3689 23.1471 56.4981 23.9902 57.3412C25.7224 59.0734 28.5407 59.0734 30.2734 57.3412L30.7227 56.8919L31.172 57.3412C32.9042 59.0734 35.7224 59.0734 37.4552 57.3412C38.2962 56.5001 38.7683 55.3729 38.7564 54.152C39.9689 54.1644 41.0986 53.6977 41.9441 52.8522C42.8219 51.9744 43.2543 50.8175 43.2424 49.6645C44.4733 49.6774 45.598 49.1983 46.4321 48.3642C47.2767 47.5202 47.7468 46.389 47.7329 45.1725C48.9127 45.1844 50.0597 44.7361 50.9211 43.8752C52.6573 42.139 52.6573 39.3287 50.9211 37.592L50.4733 37.1442C59.3248 28.3026 48.1276 39.5087 64.6281 23.0053C65.124 22.5094 65.124 21.706 64.6281 21.2101ZM3.06523 25.6619L17.5374 11.1902L22.4147 16.0675L7.94549 30.5387L3.06523 25.6619ZM12.3194 42.08C11.5756 41.3362 11.5756 40.1316 12.3194 39.3872L16.8084 34.8982C17.5513 34.1559 18.7588 34.1564 19.5012 34.8982C20.2466 35.6441 20.2466 36.8467 19.5012 37.592L15.0137 42.0795C14.2708 42.8214 13.0618 42.8214 12.3194 42.08ZM16.8084 46.569C16.064 45.8241 16.0631 44.6201 16.8084 43.8752L21.2964 39.3872C22.0418 38.6424 23.2448 38.6419 23.9902 39.3872C24.7326 40.1296 24.7355 41.3347 23.9902 42.0795C23.9897 42.08 23.9897 42.08 23.9897 42.0805L19.5012 46.569C18.7588 47.3114 17.5508 47.3114 16.8084 46.569ZM21.2964 51.0565C20.5525 50.3131 20.5525 49.1081 21.2964 48.3642L25.7854 43.8752C26.5278 43.1328 27.7353 43.1328 28.4787 43.8762C29.2116 44.6077 29.2334 45.8127 28.4782 46.5685C28.4782 46.5685 28.4782 46.5685 28.4777 46.569L23.9907 51.056C23.2478 51.7984 22.0388 51.7984 21.2964 51.0565ZM25.7854 55.546C25.041 54.8011 25.04 53.597 25.7854 52.8522L30.2734 48.3642C31.0177 47.6198 32.2218 47.6188 32.9667 48.3642C33.716 49.1135 33.7051 50.3191 32.9667 51.057L28.4782 55.546C27.7353 56.2879 26.5278 56.2879 25.7854 55.546ZM35.6595 55.546C34.9176 56.2884 33.7095 56.2884 32.9672 55.546L32.5179 55.0967L34.7624 52.8522C34.9141 52.7004 35.051 52.5383 35.1779 52.3702L35.659 52.8517C35.6595 52.8517 35.6595 52.8517 35.66 52.8522L35.6604 52.8527C36.4048 53.597 36.4048 54.8006 35.6595 55.546ZM49.1259 42.0795C48.383 42.8214 47.1745 42.8214 46.4321 42.0795L40.5972 36.2451C40.1013 35.7492 39.2975 35.7492 38.8015 36.2451C38.3061 36.7406 38.3061 37.5444 38.8015 38.0403L44.6369 43.8757C45.3813 44.6196 45.3818 45.8237 44.6364 46.569C43.8911 47.3144 42.6865 47.3114 41.9441 46.569L36.1092 40.7326C35.6138 40.2372 34.81 40.2372 34.3141 40.7326C33.8181 41.2285 33.8181 42.0324 34.3136 42.5283L40.1484 48.3642C40.8908 49.1066 40.8908 50.3146 40.1484 51.0565C39.7894 51.416 39.3108 51.6144 38.8015 51.6144C37.595 51.6144 37.2062 50.6642 36.0621 49.664C36.0507 48.4946 35.5905 47.3972 34.7629 46.5695C33.9208 45.7265 32.7931 45.2558 31.5746 45.2677C31.587 44.0473 31.1144 42.9196 30.2734 42.0795C29.3956 41.2018 28.2387 40.7698 27.0857 40.7817C27.111 38.2779 25.0832 36.2655 22.5977 36.2913C22.6101 35.0579 22.128 33.9347 21.2964 33.103C19.5642 31.3703 16.7454 31.3703 15.0132 33.103L12.7677 35.3485L9.74267 32.3324L24.6845 17.3881C26.5347 17.5994 27.7804 18.1315 28.9225 19.1932L25.3356 22.7797C23.3574 24.7594 23.3574 27.9808 25.3361 29.9615C27.3163 31.9401 30.5382 31.9406 32.5179 29.961L36.1092 26.3701C38.4301 28.6914 47.4339 37.6957 49.1254 39.3877C49.8678 40.1296 49.8678 41.3376 49.1259 42.0795ZM48.6776 35.3485L37.9044 24.5749L38.802 23.6773C39.298 23.1814 39.298 22.3775 38.802 21.8816C38.3061 21.3862 37.5028 21.3862 37.0064 21.8816L30.7222 28.1663C29.7328 29.1556 28.1211 29.1556 27.1313 28.1663C26.1419 27.1759 26.1419 25.5647 27.1308 24.5749C28.4331 23.2731 30.9999 20.7068 32.3007 19.4065C33.8062 17.9009 35.5915 17.2289 38.0879 17.2289C39.8836 17.2289 41.4338 16.6894 42.8864 15.5468L55.5276 28.5164C47.2643 36.7584 48.8953 35.1313 48.6776 35.3485ZM57.3233 26.7207L44.7599 13.831L49.3431 9.51307L61.9353 22.1077L57.3233 26.7207Z" fill="white"/>
</g>
<defs>
<clipPath id="clip0_41_1529">
<rect width="65" height="65" fill="white"/>
</clipPath>
</defs>
</svg>
