<svg width="20" height="20" viewBox="0 0 20 20" fill="none" xmlns="http://www.w3.org/2000/svg">
<path d="M18.75 3.3335H1.25C0.56082 3.3335 0 3.89432 0 4.5835V15.4168C0 16.106 0.56082 16.6668 1.25 16.6668H18.75C19.4392 16.6668 20 16.106 20 15.4168V4.5835C20 3.89436 19.4392 3.3335 18.75 3.3335ZM19.1667 15.4169C19.1667 15.6469 18.98 15.8335 18.75 15.8335H1.25C1.02 15.8335 0.83332 15.6469 0.83332 15.4169V4.5835C0.83332 4.3535 1.02 4.16682 1.25 4.16682H18.75C18.98 4.16682 19.1667 4.3535 19.1667 4.5835V15.4169Z" fill="#909090"/>
<path d="M19.7108 3.78584C19.5758 3.59916 19.3142 3.55752 19.1292 3.69252L10.735 9.76085C10.295 10.08 9.7042 10.0809 9.26334 9.76003L0.872511 3.69252C0.685832 3.55752 0.425011 3.5992 0.290831 3.78584C0.156652 3.97252 0.198331 4.23334 0.384152 4.36835L8.77416 10.435C9.14084 10.7017 9.56998 10.835 9.99998 10.835C10.4292 10.835 10.8583 10.7017 11.2242 10.435L19.6175 4.36752C19.8033 4.23334 19.8458 3.97252 19.7108 3.78584Z" fill="#909090"/>
<path d="M9.22249 9.75515C9.08667 9.56932 8.82749 9.52683 8.63999 9.66265L0.395812 15.6468C0.209991 15.7827 0.168312 16.0427 0.303312 16.2293C0.384991 16.3418 0.511632 16.401 0.640812 16.401C0.724992 16.401 0.810812 16.3752 0.885812 16.3218L9.12999 10.3376C9.31581 10.2018 9.35749 9.94183 9.22249 9.75515Z" fill="#909090"/>
<path d="M19.6042 15.6466L11.3608 9.6624C11.1725 9.52658 10.9133 9.56822 10.7783 9.7549C10.6433 9.94158 10.685 10.2016 10.8708 10.3374L19.1141 16.3216C19.1875 16.3749 19.2733 16.4007 19.3583 16.4007C19.4875 16.4007 19.615 16.3416 19.6966 16.2291C19.8317 16.0424 19.79 15.7824 19.6042 15.6466Z" fill="#909090"/>
</svg>
