<svg width="24" height="24" viewBox="0 0 24 24" fill="none" xmlns="http://www.w3.org/2000/svg">
<path d="M22.5 3.99997H1.5C0.672984 3.99997 0 4.67295 0 5.49997V18.5C0 19.327 0.672984 20 1.5 20H22.5C23.327 20 24 19.327 24 18.5V5.49997C24 4.673 23.327 3.99997 22.5 3.99997ZM23 18.5C23 18.776 22.776 19 22.5 19H1.5C1.224 19 0.999984 18.776 0.999984 18.5V5.49997C0.999984 5.22397 1.224 4.99995 1.5 4.99995H22.5C22.776 4.99995 23 5.22397 23 5.49997V18.5Z" fill="#FEE600"/>
<path d="M23.653 4.54298C23.491 4.31897 23.177 4.269 22.955 4.431L12.882 11.713C12.354 12.096 11.645 12.097 11.116 11.712L1.04703 4.431C0.82301 4.269 0.510026 4.31901 0.34901 4.54298C0.187994 4.767 0.23801 5.07998 0.460994 5.24198L10.529 12.522C10.969 12.842 11.484 13.002 12 13.002C12.515 13.002 13.03 12.842 13.469 12.522L23.541 5.241C23.764 5.07998 23.815 4.767 23.653 4.54298Z" fill="#FEE600"/>
<path d="M11.067 11.706C10.904 11.483 10.593 11.432 10.368 11.595L0.474999 18.776C0.252014 18.939 0.201998 19.251 0.363998 19.475C0.462014 19.61 0.613983 19.681 0.768999 19.681C0.870014 19.681 0.972999 19.65 1.063 19.586L10.956 12.405C11.179 12.242 11.229 11.93 11.067 11.706Z" fill="#FEE600"/>
<path d="M23.525 18.776L13.633 11.595C13.407 11.432 13.096 11.482 12.934 11.706C12.772 11.93 12.822 12.242 13.045 12.405L22.937 19.586C23.025 19.65 23.128 19.681 23.23 19.681C23.385 19.681 23.538 19.61 23.636 19.475C23.798 19.251 23.748 18.939 23.525 18.776Z" fill="#FEE600"/>
</svg>
