<svg width="15" height="15" viewBox="0 0 15 15" fill="none" xmlns="http://www.w3.org/2000/svg">
<g clip-path="url(#clip0_41_379)">
<path d="M7.50251 3.64893C5.37564 3.64893 3.65376 5.37268 3.65376 7.49768C3.65376 9.62455 5.37751 11.3464 7.50251 11.3464C9.62939 11.3464 11.3513 9.62268 11.3513 7.49768C11.3513 5.3708 9.62751 3.64893 7.50251 3.64893ZM7.50251 9.9958C6.12189 9.9958 5.00439 8.87768 5.00439 7.49768C5.00439 6.11768 6.12251 4.99955 7.50251 4.99955C8.88251 4.99955 10.0006 6.11768 10.0006 7.49768C10.0013 8.87768 8.88314 9.9958 7.50251 9.9958Z" fill="#FEE600"/>
<path d="M10.5925 0.0476049C9.21249 -0.0167701 5.79436 -0.0136451 4.41311 0.0476049C3.19936 0.10448 2.12874 0.397605 1.26561 1.26073C-0.176886 2.70323 0.00748945 4.64698 0.00748945 7.49761C0.00748945 10.4151 -0.155011 12.3139 1.26561 13.7345C2.71374 15.182 4.68561 14.9926 7.50249 14.9926C10.3925 14.9926 11.39 14.9945 12.4119 14.5989C13.8012 14.0595 14.85 12.8176 14.9525 10.587C15.0175 9.20636 15.0137 5.78886 14.9525 4.40761C14.8287 1.77448 13.4156 0.177605 10.5925 0.0476049ZM12.7769 12.7801C11.8312 13.7257 10.5194 13.6414 7.48436 13.6414C4.35936 13.6414 3.10624 13.6876 2.19186 12.7707C1.13874 11.7226 1.32936 10.0395 1.32936 7.48761C1.32936 4.03448 0.97499 1.5476 4.44061 1.3701C5.23686 1.34198 5.47124 1.33261 7.47561 1.33261L7.50374 1.35135C10.8344 1.35135 13.4475 1.0026 13.6044 4.46761C13.64 5.25823 13.6481 5.49573 13.6481 7.49698C13.6475 10.5857 13.7062 11.8464 12.7769 12.7801Z" fill="#FEE600"/>
<path d="M11.5037 4.3964C12.0005 4.3964 12.4031 3.99374 12.4031 3.49703C12.4031 3.00032 12.0005 2.59766 11.5037 2.59766C11.007 2.59766 10.6044 3.00032 10.6044 3.49703C10.6044 3.99374 11.007 4.3964 11.5037 4.3964Z" fill="#FEE600"/>
</g>
<defs>
<clipPath id="clip0_41_379">
<rect width="15" height="15" fill="white"/>
</clipPath>
</defs>
</svg>
