<svg width="475" height="482" viewBox="0 0 475 482" fill="none" xmlns="http://www.w3.org/2000/svg">
<path d="M0.00697756 221.851C2.9686 150.969 41.0749 81.8647 116.3 34.8735C166.45 3.67772 222.129 -6.19437 280.177 3.67772C373.369 19.4731 448.792 86.8007 473.472 179.993C477.026 193.024 473.275 201.317 463.403 203.884C454.321 206.253 447.41 202.107 444.448 191.84C437.341 166.37 427.666 142.084 411.673 120.761C361.918 54.6177 295.775 23.6193 213.639 34.2812C130.121 44.9431 71.086 92.1317 43.6416 171.108C17.1844 246.926 31.2028 318.202 85.4993 379.607C118.275 416.529 159.935 438.05 208.703 445.75C220.549 447.724 226.868 455.227 225.091 464.902C223.511 473.589 214.429 478.525 203.372 476.748C136.439 465.889 82.9325 432.719 43.6416 378.027C15.9998 339.329 -0.387906 293.917 0.00697756 221.851Z" fill="#EDEEE1"/>
<path d="M101.492 344.66C100.9 328.272 109.982 317.413 122.816 309.515C149.076 293.325 175.533 277.727 201.99 261.932C208.111 258.378 214.034 256.601 220.352 261.142C226.078 265.288 225.683 271.409 224.498 277.332C218.773 309.318 213.244 341.303 207.124 373.289C203.372 393.033 181.061 408.433 161.909 402.313C140.783 395.6 123.211 382.371 108.008 366.181C102.479 359.863 101.887 352.162 101.492 344.66Z" fill="#FCFDF5"/>
<path d="M148.088 87.3931C167.043 87.3931 181.654 97.66 187.577 112.863C198.831 141.887 210.283 170.911 221.734 199.737C224.301 206.253 225.88 211.979 219.957 217.705C214.429 223.233 208.703 221.259 202.78 219.284C174.546 209.412 146.509 199.54 118.077 189.865C85.1045 178.809 76.8119 145.836 100.702 120.958C108.403 112.863 116.3 105.163 124.198 97.2652C131.503 90.1573 140.388 87.788 148.088 87.3931Z" fill="#FCFDF5"/>
<path d="M53.3163 241.2C50.7495 225.405 54.5009 208.82 72.0733 198.355C81.7479 192.432 92.2123 190.655 103.269 194.801C134.07 206.253 164.673 217.704 195.474 229.354C201.398 231.525 206.729 235.079 207.123 242.385C207.716 249.69 202.582 252.454 197.251 255.416C168.425 270.816 139.993 287.007 110.574 301.617C87.0788 313.266 59.6344 297.866 55.2907 272.001C53.9086 262.721 53.9086 253.639 53.3163 241.2Z" fill="#FCFDF5"/>
<path d="M241.083 55.8023C250.955 56.9869 263.789 57.7767 276.425 59.7511C303.87 64.2923 317.493 93.5137 303.475 117.602C287.482 145.046 271.094 172.095 254.904 199.342C251.548 204.871 247.994 210.004 240.491 209.215C233.186 208.425 230.421 202.896 228.447 196.578C218.18 165.777 207.321 135.371 197.646 104.373C189.551 78.903 210.085 54.8151 241.083 55.8023Z" fill="#FCFDF5"/>
<path d="M409.106 168.147C408.712 186.509 395.286 202.699 376.923 206.253C344.74 212.374 312.36 218.099 280.177 224.22C274.254 225.405 269.91 223.233 266.553 218.692C263.197 214.348 263.394 209.807 266.356 204.871C283.139 176.439 299.921 147.81 316.309 119.181C329.143 96.6727 364.682 93.7111 380.675 115.232C388.375 125.499 395.878 135.766 402.788 146.428C406.935 153.141 409.304 160.446 409.106 168.147Z" fill="#FCFDF5"/>
<path d="M251.35 416.726C258.261 428.178 266.158 437.26 270.502 448.119C275.241 459.966 271.489 473.392 262.21 478.525C248.389 486.423 233.383 478.13 232.593 462.138C232.198 445.158 242.07 432.127 251.35 416.726Z" fill="#FCFDF5"/>
</svg>
