<svg width="272" height="268" viewBox="0 0 272 268" fill="none" xmlns="http://www.w3.org/2000/svg">
<path d="M0.00399737 123.261C1.70068 83.879 23.5313 45.4843 66.6271 19.3758C95.3576 2.04335 127.255 -3.44161 160.51 2.04335C213.899 10.8193 257.108 48.2267 271.247 100.005C273.283 107.245 271.134 111.852 265.478 113.278C260.275 114.595 256.316 112.291 254.62 106.587C250.548 92.4355 245.005 78.9425 235.843 67.095C207.339 30.3458 169.446 13.123 122.391 19.0467C74.5449 24.9705 40.7244 51.1886 25.0018 95.0683C9.84476 137.193 17.8757 176.794 48.9816 210.911C67.7582 231.425 91.6249 243.382 119.564 247.66C126.35 248.757 129.97 252.926 128.952 258.301C128.047 263.128 122.844 265.87 116.51 264.883C78.1645 258.849 47.5111 240.42 25.0018 210.033C9.16609 188.532 -0.222227 163.301 0.00399737 123.261Z" fill="#EDEAE0"/>
<path d="M58.1437 191.494C57.8043 182.389 63.0075 176.355 70.3598 171.968C85.4037 162.972 100.561 154.306 115.718 145.53C119.224 143.555 122.618 142.568 126.237 145.091C129.517 147.395 129.291 150.796 128.613 154.087C125.332 171.858 122.165 189.629 118.659 207.4C116.51 218.37 103.728 226.927 92.756 223.526C80.653 219.796 70.586 212.447 61.8764 203.451C58.7092 199.941 58.3699 195.663 58.1437 191.494Z" fill="#F2F1EB"/>
<path d="M84.8381 48.5559C95.6969 48.5559 104.067 54.2603 107.461 62.7071C113.908 78.8329 120.468 94.9587 127.029 110.975C128.499 114.595 129.404 117.776 126.011 120.957C122.844 124.029 119.564 122.932 116.17 121.835C99.9952 116.35 83.9333 110.865 67.6451 105.49C48.7554 99.3467 44.0046 81.0269 57.6912 67.2048C62.1026 62.7071 66.6271 58.4288 71.1516 54.0409C75.3367 50.0917 80.4268 48.7753 84.8381 48.5559Z" fill="#F2F1EB"/>
<path d="M30.5442 134.011C29.0738 125.235 31.2229 116.021 41.2899 110.207C46.8324 106.916 52.8274 105.928 59.1616 108.232C76.8071 114.595 94.3395 120.957 111.985 127.429C115.378 128.636 118.432 130.611 118.659 134.67C118.998 138.728 116.057 140.264 113.003 141.91C96.4887 150.466 80.2005 159.462 63.3468 167.579C49.8864 174.052 34.1638 165.495 31.6754 151.124C30.8836 145.969 30.8836 140.922 30.5442 134.011Z" fill="#F2F1EB"/>
<path d="M138.114 31.0038C143.77 31.662 151.122 32.1008 158.361 33.1978C174.084 35.7209 181.888 51.9564 173.857 65.3397C164.695 80.5879 155.307 95.6167 146.032 110.755C144.109 113.827 142.073 116.679 137.775 116.24C133.589 115.801 132.006 112.73 130.875 109.219C124.993 92.1063 118.772 75.2127 113.229 57.9899C108.592 43.8387 120.355 30.4554 138.114 31.0038Z" fill="#F2F1EB"/>
<path d="M234.372 93.4227C234.146 103.625 226.455 112.62 215.935 114.595C197.498 117.995 178.947 121.177 160.51 124.577C157.117 125.236 154.628 124.029 152.705 121.506C150.783 119.092 150.896 116.569 152.592 113.827C162.207 98.0301 171.821 82.1237 181.21 66.2173C188.562 53.7116 208.922 52.0661 218.084 64.0233C222.496 69.7277 226.794 75.432 230.753 81.3558C233.128 85.0856 234.486 89.1445 234.372 93.4227Z" fill="#F2F1EB"/>
<path d="M143.996 231.534C147.955 237.897 152.479 242.943 154.968 248.976C157.682 255.558 155.533 263.018 150.217 265.87C142.299 270.258 133.703 265.651 133.25 256.765C133.024 247.331 138.68 240.091 143.996 231.534Z" fill="#F2F1EB"/>
</svg>
