<svg width="20" height="20" viewBox="0 0 20 20" fill="none" xmlns="http://www.w3.org/2000/svg">
<g clip-path="url(#clip0_19_68)">
<path d="M19.987 16.4608C19.9235 15.9802 19.646 15.5658 19.2259 15.3239L14.2919 12.4831C13.6876 12.1351 12.9209 12.2364 12.4277 12.7297L11.4558 13.7015C11.1972 13.9602 10.788 13.9831 10.5043 13.7547C9.73813 13.1382 8.98376 12.4597 8.26217 11.7381C7.54059 11.0165 6.86211 10.2622 6.24558 9.49598C6.0172 9.21218 6.04005 8.80307 6.29875 8.54442L7.27057 7.57256C7.76378 7.07939 7.8652 6.31284 7.51718 5.70841L4.67632 0.774333C4.43443 0.354212 4.02009 0.0768087 3.5395 0.0132246C3.05886 -0.0504891 2.5866 0.10981 2.2438 0.452611L0.779419 1.91703C-0.242635 2.93913 -0.25905 4.80873 0.7332 7.18151C1.68731 9.46302 3.46783 11.9746 5.74671 14.2536C8.02568 16.5325 10.5372 18.313 12.8188 19.2671C13.9868 19.7555 15.0327 19.9996 15.9158 19.9995C16.8267 19.9995 17.5643 19.7398 18.0833 19.2208L19.5477 17.7564C19.8904 17.4136 20.0506 16.9414 19.987 16.4608ZM13.9686 13.0446L18.9027 15.8854C19.1467 16.0259 19.3078 16.2666 19.3447 16.5457C19.3757 16.78 19.3148 17.0106 19.1769 17.1965L12.6195 13.4541L12.8858 13.1878C13.1723 12.9014 13.6176 12.8425 13.9686 13.0446ZM3.45449 0.655588C3.73366 0.69252 3.9743 0.85364 4.11478 1.09765L6.95563 6.03172C7.15779 6.38278 7.09887 6.82804 6.81244 7.11443L6.56782 7.35904L2.80487 0.823403C2.95869 0.709496 3.14266 0.64764 3.33445 0.64764C3.37423 0.64764 3.41436 0.650275 3.45449 0.655588ZM17.6251 18.7627C16.8131 19.5747 15.1524 19.5406 13.0688 18.6693C10.8632 17.747 8.42562 16.016 6.20493 13.7954C3.98424 11.5747 2.2533 9.13706 1.33099 6.93153C0.459598 4.8479 0.425603 3.1872 1.2376 2.37517L2.3247 1.28802L6.09331 7.83355L5.84058 8.08629C5.3475 8.57941 5.30456 9.36004 5.74075 9.90223C6.3718 10.6865 7.066 11.4583 7.80395 12.1963C8.54199 12.9343 9.31382 13.6285 10.098 14.2595C10.6401 14.6957 11.4208 14.6528 11.914 14.1596L12.1446 13.9291L18.711 17.6767L17.6251 18.7627Z" fill="#909090"/>
</g>
<defs>
<clipPath id="clip0_19_68">
<rect width="20" height="20" fill="white"/>
</clipPath>
</defs>
</svg>
