<svg width="23" height="23" viewBox="0 0 23 23" fill="none" xmlns="http://www.w3.org/2000/svg">
<path d="M11.5 0C7.00831 0 3.35419 3.65412 3.35419 8.14582C3.35419 12.4899 10.8014 22.3905 11.1176 22.8103C11.2087 22.9301 11.3496 23 11.5 23C11.6504 23 11.7913 22.9301 11.8824 22.8103C12.1986 22.3905 19.6458 12.4899 19.6458 8.14582C19.6458 3.65412 15.9917 0 11.5 0ZM11.5 21.7149C9.96188 19.6104 4.31251 11.6418 4.31251 8.14582C4.31251 4.18214 7.53632 0.958318 11.5 0.958318C15.4637 0.958318 18.6875 4.18214 18.6875 8.14582C18.6875 11.6399 13.0381 19.6094 11.5 21.7149Z" fill="#FEE600"/>
<path d="M11.5 3.83331C9.12237 3.83331 7.1875 5.76819 7.1875 8.14581C7.1875 10.5234 9.12237 12.4583 11.5 12.4583C13.8776 12.4583 15.8125 10.5234 15.8125 8.14581C15.8125 5.76819 13.8776 3.83331 11.5 3.83331ZM11.5 11.5C9.65043 11.5 8.14582 9.99543 8.14582 8.14581C8.14582 6.29624 9.65039 4.79163 11.5 4.79163C13.3496 4.79163 14.8542 6.2962 14.8542 8.14581C14.8542 9.99543 13.3496 11.5 11.5 11.5Z" fill="#FEE600"/>
</svg>
