<svg width="60" height="60" viewBox="0 0 60 60" fill="none" xmlns="http://www.w3.org/2000/svg">
<g clip-path="url(#clip0_41_1516)">
<path d="M10.5528 46.4003C9.71283 46.4003 8.90533 46.61 8.18893 47.0036C4.41513 42.166 2.34375 36.1565 2.34375 30C2.34375 14.7501 14.7501 2.34375 30 2.34375C31.8539 2.34375 33.707 2.52823 35.5078 2.89215C36.1414 3.02032 36.7603 2.61017 36.8884 1.97571C37.0166 1.34125 36.6064 0.723267 35.972 0.594635C34.0187 0.200043 32.0096 0 30 0C21.9868 0 14.453 3.12057 8.78677 8.78677C3.12057 14.453 0 21.9868 0 30C0 36.7406 2.28882 43.3186 6.45584 48.5921C5.91934 49.3936 5.63095 50.3357 5.63095 51.3222C5.63095 52.6369 6.14319 53.8728 7.07291 54.8021C8.00217 55.7318 9.23813 56.244 10.5528 56.244C11.8675 56.244 13.1035 55.7318 14.0332 54.8021C14.9629 53.8728 15.4747 52.6364 15.4747 51.3217C15.4747 50.0075 14.9629 48.7711 14.0332 47.8418C13.1035 46.9121 11.8675 46.4003 10.5528 46.4003ZM12.3756 53.145C11.889 53.632 11.2413 53.9003 10.5528 53.9003C9.86435 53.9003 9.21707 53.632 8.73001 53.145C8.24295 52.6579 7.9747 52.0107 7.9747 51.3222C7.9747 50.6332 8.24295 49.986 8.73001 49.4989C9.21661 49.0118 9.86435 48.744 10.5528 48.744C11.2413 48.744 11.8886 49.0123 12.3756 49.4989C12.8627 49.986 13.131 50.6332 13.131 51.3222C13.131 52.0107 12.8627 52.6579 12.3756 53.145Z" fill="#A6B03B"/>
<path d="M53.5432 11.4066C54.8171 9.49542 54.6125 6.88251 52.9275 5.19748C51.9978 4.26822 50.7618 3.75598 49.4471 3.75598C48.1324 3.75598 46.8965 4.26822 45.9667 5.19748C45.037 6.1272 44.5252 7.36316 44.5252 8.67786C44.5252 9.99255 45.037 11.2285 45.9667 12.1582C46.8965 13.088 48.1324 13.5997 49.4471 13.5997C50.2871 13.5997 51.0946 13.3901 51.811 12.9964C55.5848 17.8345 57.6562 23.8436 57.6562 30C57.6562 45.25 45.2499 57.6563 29.9999 57.6563C28.1643 57.6563 26.3287 57.4755 24.5448 57.1184C23.9103 56.9916 23.2928 57.4031 23.1655 58.0376C23.0387 58.6725 23.4503 59.2896 24.0847 59.4168C26.0197 59.8036 28.01 60 29.9999 60C38.0131 60 45.547 56.8795 51.2132 51.2133C56.8794 45.5471 59.9999 38.0132 59.9999 30C59.9999 23.259 57.7107 16.6805 53.5432 11.4066ZM47.6243 10.5011C47.1372 10.0141 46.869 9.36679 46.869 8.67786C46.869 7.98938 47.1372 7.3421 47.6243 6.85504C48.1109 6.36798 48.7586 6.09973 49.4471 6.09973C50.1356 6.09973 50.7833 6.36798 51.2704 6.85504C52.2752 7.86029 52.2752 9.49588 51.2704 10.5011C50.7833 10.9877 50.1356 11.256 49.4471 11.256C48.7582 11.256 48.1109 10.9877 47.6243 10.5011Z" fill="#A6B03B"/>
<path d="M25.1641 50.1562C25.1641 50.8035 25.6891 51.3281 26.3359 51.3281H33.6634C34.3106 51.3281 34.8352 50.8035 34.8352 50.1562V47.8844C36.3761 47.4696 37.8492 46.859 39.2334 46.0616L40.8374 47.6656C41.0572 47.8853 41.3552 48.0089 41.6664 48.0089C41.9768 48.0089 42.2753 47.8853 42.495 47.6651L47.6741 42.4823C48.1314 42.0245 48.1314 41.2825 47.6741 40.8252L46.072 39.223C46.8694 37.8387 47.48 36.3657 47.8948 34.8248H50.158C50.8052 34.8248 51.3298 34.3002 51.3298 33.653V26.3255C51.3298 25.6783 50.8052 25.1537 50.158 25.1537H47.8943C47.4796 23.6133 46.8694 22.1402 46.072 20.7559L47.6654 19.1624C47.8852 18.9427 48.0088 18.6443 48.0088 18.3334C48.0083 18.0226 47.8847 17.7242 47.665 17.5044L42.4817 12.3253C42.0244 11.868 41.2824 11.868 40.8246 12.3257L39.2334 13.9174C37.8492 13.12 36.3761 12.5093 34.8352 12.0946V9.84375C34.8352 9.19647 34.3106 8.67188 33.6634 8.67188H26.3359C25.6891 8.67188 25.1641 9.19647 25.1641 9.84375V12.095C23.6237 12.5093 22.1506 13.12 20.7663 13.9174L19.1747 12.3257C18.7174 11.8684 17.9753 11.868 17.5176 12.3253L12.3348 17.5049C12.1146 17.7246 11.991 18.0226 11.991 18.3334C11.991 18.6443 12.1146 18.9427 12.3343 19.1624L13.9278 20.7559C13.1304 22.1402 12.5197 23.6128 12.105 25.1537H9.84592C9.19864 25.1537 8.67404 25.6783 8.67404 26.3251L8.66992 33.6525C8.66947 33.9633 8.79306 34.2618 9.01279 34.4815C9.23251 34.7012 9.53052 34.8248 9.8418 34.8248H12.105C12.5197 36.3657 13.1304 37.8387 13.9278 39.223L12.3256 40.8252C11.8683 41.2825 11.8679 42.0245 12.3256 42.4823L17.5048 47.6651C17.7245 47.8848 18.0225 48.0089 18.3333 48.0089H18.3338C18.6446 48.0089 18.9426 47.8853 19.1623 47.6656L20.7659 46.0616C22.1506 46.859 23.6237 47.4696 25.1641 47.8844V50.1562ZM21.2255 43.597C20.7618 43.2971 20.1516 43.3621 19.7606 43.7526L18.3338 45.1794L14.8113 41.6542L16.2368 40.2283C16.6272 39.8378 16.6922 39.2276 16.3924 38.7639C15.3299 37.1196 14.5829 35.3174 14.1727 33.4067C14.0564 32.867 13.5794 32.4811 13.0269 32.4811H11.0141L11.0169 27.4974H13.0269C13.5794 27.4974 14.0564 27.112 14.1727 26.5718C14.5829 24.6616 15.3299 22.8593 16.3924 21.2151C16.6922 20.7513 16.6272 20.1411 16.2368 19.7507L14.8204 18.3339L18.3457 14.8114L19.7606 16.2268C20.1516 16.6173 20.7613 16.6818 21.2255 16.3824C22.8693 15.32 24.6715 14.5729 26.5822 14.1628C27.1219 14.0465 27.5078 13.569 27.5078 13.017V11.0156H32.4915V13.0165C32.4915 13.569 32.8769 14.0465 33.4171 14.1623C35.3273 14.5729 37.13 15.3195 38.7738 16.382C39.2375 16.6818 39.8477 16.6173 40.2382 16.2263L41.6536 14.8114L45.1789 18.3339L43.7625 19.7502C43.3716 20.1411 43.3071 20.7513 43.6069 21.2151C44.6694 22.8593 45.416 24.6616 45.8266 26.5718C45.9424 27.112 46.4199 27.4974 46.9724 27.4974H48.9861V32.4811H46.9724C46.4199 32.4811 45.9429 32.867 45.8266 33.4067C45.4164 35.3169 44.6694 37.1196 43.6069 38.7634C43.3071 39.2276 43.3721 39.8378 43.7625 40.2283L45.188 41.6537L41.6655 45.179L40.2387 43.7526C39.8477 43.3617 39.2375 43.2971 38.7738 43.597C37.1295 44.6594 35.3273 45.406 33.4171 45.8167C32.8769 45.9329 32.4915 46.4099 32.4915 46.9624V48.9844H27.5078V46.9624C27.5078 46.4104 27.1219 45.9329 26.5822 45.8167C24.672 45.4065 22.8698 44.6594 21.2255 43.597Z" fill="#A6B03B"/>
<path d="M39.683 30C39.683 24.6606 35.3393 20.3169 30 20.3169C24.6606 20.3169 20.3169 24.6606 20.3169 30C20.3169 35.3393 24.6606 39.683 30 39.683C35.3393 39.683 39.683 35.3393 39.683 30ZM22.6606 30C22.6606 25.9529 25.9529 22.6606 30 22.6606C34.0471 22.6606 37.3393 25.9533 37.3393 30C37.3393 34.0466 34.0471 37.3393 30 37.3393C25.9529 37.3393 22.6606 34.0471 22.6606 30Z" fill="#A6B03B"/>
<path d="M40.7905 4.43204C41.0991 4.43204 41.4012 4.30661 41.6191 4.08871C41.837 3.86945 41.9624 3.56732 41.9624 3.25879C41.9624 2.95209 41.8374 2.64951 41.6191 2.43024C41.4012 2.21234 41.0991 2.08691 40.7905 2.08691C40.4811 2.08691 40.1803 2.21234 39.9624 2.43024C39.7441 2.64951 39.6187 2.95071 39.6187 3.25879C39.6187 3.56824 39.7441 3.86945 39.9624 4.08871C40.1803 4.30661 40.4811 4.43204 40.7905 4.43204Z" fill="#A6B03B"/>
<path d="M19.2607 55.589C18.9527 55.589 18.6501 55.7144 18.4322 55.9323C18.2143 56.1502 18.0889 56.4528 18.0889 56.7609C18.0889 57.0703 18.2143 57.3715 18.4322 57.5894C18.6501 57.8073 18.9527 57.9327 19.2607 57.9327C19.5688 57.9327 19.8714 57.8073 20.0893 57.5894C20.3072 57.3715 20.4326 57.0689 20.4326 56.7609C20.4326 56.4528 20.3072 56.1502 20.0893 55.9323C19.8714 55.7144 19.5688 55.589 19.2607 55.589Z" fill="#A6B03B"/>
</g>
<defs>
<clipPath id="clip0_41_1516">
<rect width="60" height="60" fill="white"/>
</clipPath>
</defs>
</svg>
